<svg width="666" height="715" viewBox="0 0 666 715" fill="none" xmlns="http://www.w3.org/2000/svg">
<path opacity="0.7" d="M30.3649 556.328C12.5259 551.901 2.12498e-06 535.886 2.34416e-06 517.506L4.74539e-06 316.142C5.05538e-06 290.148 24.4058 271.059 49.6351 277.32L635.635 422.756C653.474 427.184 666 443.198 666 461.579L666 662.942C666 688.937 641.594 708.026 616.365 701.764L30.3649 556.328Z" fill="#1F8110"/>
<path opacity="0.7" d="M44.1995 441.335C20.5779 443.828 2.46752e-07 425.309 5.30002e-07 401.556L4.05078e-06 106.309C4.29483e-06 85.8436 15.4479 68.6791 35.8005 66.5304L621.801 4.66614C645.423 2.17239 666 20.6922 666 44.4451L666 339.692C666 360.157 650.552 377.322 630.2 379.47L44.1995 441.335Z" fill="#95D159"/>
</svg>
